<?xml version="1.0" encoding="UTF-8" standalone="no"?> <!-- Created with Vectornator for iOS (http://vectornator.io/) --><!DOCTYPE svg PUBLIC "-//W3C//DTD SVG 1.1//EN" "http://www.w3.org/Graphics/SVG/1.1/DTD/svg11.dtd">
<svg style="fill-rule:evenodd;clip-rule:evenodd;stroke-linecap:round;stroke-linejoin:round;" xmlns:vectornator="http://vectornator.io" xmlns:xlink="http://www.w3.org/1999/xlink" xmlns="http://www.w3.org/2000/svg" xml:space="preserve" version="1.1" viewBox="0 0 1920 1080">
<metadata>
<vectornator:setting key="DisplayWhiteBackground" value="0"/>
<vectornator:setting key="RulersVisible" value="1"/>
<vectornator:setting key="GridSpacing" value="36"/>
<vectornator:setting key="Units" value="Pixels"/>
<vectornator:setting key="New" value="1"/>
<vectornator:setting key="DynamicGuides" value="0"/>
<vectornator:setting key="SnapToPoints" value="0"/>
<vectornator:setting key="CMYKEnabledKey" value="0"/>
<vectornator:setting key="SnapToGrid" value="0"/>
<vectornator:setting key="SnapToGuides" value="0"/>
<vectornator:setting key="SnapToEdges" value="0"/>
</metadata>
<defs>
<linearGradient y1="238.488" id="LinearGradient" x1="535.365" y2="238.488" x2="769.526" gradientUnits="userSpaceOnUse" gradientTransform="matrix(0.227141 0 0 0.227141 591.138 463.359)">
<stop stop-color="#9e0505" offset="0.3675"/>
<stop stop-color="#cb1717" offset="0.9175"/>
</linearGradient>
<linearGradient y1="165.337" id="LinearGradient_2" x1="613.985" y2="165.337" x2="771.043" gradientUnits="userSpaceOnUse" gradientTransform="matrix(0.227141 0 0 0.227141 591.138 463.359)">
<stop stop-color="#9e0505" offset="0"/>
<stop stop-color="#cb1717" offset="0.9175"/>
</linearGradient>
<linearGradient y1="533.513" id="LinearGradient_3" x1="141.909" y2="533.513" x2="882.091" gradientUnits="userSpaceOnUse" gradientTransform="matrix(0.227141 0 0 0.227141 591.138 463.359)">
<stop stop-color="#939393" offset="0.415"/>
<stop stop-color="#cecece" offset="0.9075"/>
</linearGradient>
<linearGradient y1="637.469" id="LinearGradient_4" x1="141.909" y2="637.469" x2="846.415" gradientUnits="userSpaceOnUse" gradientTransform="matrix(0.227141 0 0 0.227141 591.138 463.359)">
<stop stop-color="#750000" offset="0.415"/>
<stop stop-color="#9f1f1f" offset="0.89"/>
</linearGradient>
</defs>
<g id="Layer 2" vectornator:layerName="Layer 2">
<path d="M0.00916312+0L1920+0L1920+1078.95L0.00916312+1078.95L0.00916312+0Z" opacity="1" fill="#2e364f"/>
</g>
<g id="Layer 1" vectornator:layerName="Layer 1">
<g opacity="1">
<path d="M813.128+554.334L813.128+537.534L827.828+537.534L827.828+513.209L848.478+513.209L848.478+537.534L869.478+537.534L869.478+554.334L848.478+554.334L848.478+593.359C848.478+597.092+849.149+600.184+850.491+602.634C851.833+605.084+854.837+606.309+859.503+606.309C860.903+606.309+862.42+606.163+864.053+605.871C865.687+605.58+867.145+605.142+868.428+604.559L869.128+621.009C867.262+621.709+865.045+622.263+862.478+622.671C859.912+623.08+857.462+623.284+855.128+623.284C849.528+623.284+844.978+622.496+841.478+620.921C837.978+619.346+835.208+617.188+833.166+614.446C831.124+611.705+829.724+608.555+828.966+604.996C828.208+601.438+827.828+597.617+827.828+593.534L827.828+554.334L813.128+554.334Z" opacity="1" fill="#f3f0e2"/>
<path d="M936.853+610.859L936.328+610.859C934.228+614.592+930.845+617.655+926.178+620.046C921.512+622.438+916.203+623.634+910.253+623.634C906.87+623.634+903.341+623.196+899.666+622.321C895.991+621.446+892.608+619.988+889.516+617.946C886.424+615.905+883.858+613.221+881.816+609.896C879.774+606.571+878.753+602.459+878.753+597.559C878.753+591.259+880.533+586.242+884.091+582.509C887.649+578.776+892.228+575.917+897.828+573.934C903.428+571.951+909.641+570.638+916.466+569.996C923.291+569.355+929.97+569.034+936.503+569.034L936.503+566.934C936.503+561.684+934.608+557.805+930.816+555.296C927.024+552.788+922.503+551.534+917.253+551.534C912.82+551.534+908.562+552.467+904.478+554.334C900.395+556.201+897.012+558.476+894.328+561.159L883.478+548.384C888.262+543.951+893.774+540.626+900.016+538.409C906.258+536.192+912.587+535.084+919.003+535.084C926.47+535.084+932.624+536.134+937.466+538.234C942.308+540.334+946.128+543.076+948.928+546.459C951.728+549.842+953.683+553.634+954.791+557.834C955.899+562.034+956.453+566.234+956.453+570.434L956.453+621.534L936.853+621.534L936.853+610.859ZM936.503+583.209L931.778+583.209C928.395+583.209+924.837+583.355+921.103+583.646C917.37+583.938+913.928+584.58+910.778+585.571C907.628+586.563+905.003+587.963+902.903+589.771C900.803+591.58+899.753+594.059+899.753+597.209C899.753+599.192+900.191+600.855+901.066+602.196C901.941+603.538+903.078+604.617+904.478+605.434C905.878+606.251+907.453+606.834+909.203+607.184C910.953+607.534+912.703+607.709+914.453+607.709C921.687+607.709+927.17+605.784+930.903+601.934C934.637+598.084+936.503+592.834+936.503+586.184L936.503+583.209Z" opacity="1" fill="#f3f0e2"/>
<path d="M1038.35+560.809C1036.72+558.476+1034.27+556.521+1031+554.946C1027.74+553.371+1024.41+552.584+1021.03+552.584C1017.18+552.584+1013.8+553.371+1010.88+554.946C1007.96+556.521+1005.54+558.592+1003.62+561.159C1001.69+563.726+1000.26+566.613+999.328+569.821C998.395+573.03+997.928+576.267+997.928+579.534C997.928+582.801+998.424+586.038+999.416+589.246C1000.41+592.455+1001.9+595.342+1003.88+597.909C1005.86+600.476+1008.34+602.546+1011.32+604.121C1014.29+605.696+1017.76+606.484+1021.73+606.484C1025+606.484+1028.26+605.842+1031.53+604.559C1034.8+603.276+1037.42+601.409+1039.4+598.959L1052.53+612.259C1049.03+615.992+1044.57+618.88+1039.14+620.921C1033.72+622.963+1027.85+623.984+1021.55+623.984C1015.37+623.984+1009.51+622.992+1003.97+621.009C998.424+619.026+993.583+616.109+989.441+612.259C985.299+608.409+982.033+603.742+979.641+598.259C977.249+592.776+976.053+586.534+976.053+579.534C976.053+572.767+977.249+566.642+979.641+561.159C982.033+555.676+985.27+551.009+989.353+547.159C993.437+543.309+998.191+540.334+1003.62+538.234C1009.04+536.134+1014.85+535.084+1021.03+535.084C1027.21+535.084+1033.19+536.251+1038.97+538.584C1044.74+540.917+1049.32+544.126+1052.7+548.209L1038.35+560.809Z" opacity="1" fill="#f3f0e2"/>
<path d="M1066.7+489.234L1087.7+489.234L1087.7+572.884L1088.23+572.884L1120.08+537.534L1147.03+537.534L1110.63+575.509L1149.3+621.534L1121.48+621.534L1088.23+578.484L1087.7+578.484L1087.7+621.534L1066.7+621.534L1066.7+489.234Z" opacity="1" fill="#f3f0e2"/>
<path d="M1161.73+489.234L1182.73+489.234L1182.73+621.534L1161.73+621.534L1161.73+489.234Z" opacity="1" fill="#f3f0e2"/>
<path d="M1267.43+571.134C1267.43+568.451+1267.05+565.884+1266.29+563.434C1265.53+560.984+1264.34+558.826+1262.7+556.959C1261.07+555.092+1259+553.605+1256.49+552.496C1253.98+551.388+1251.04+550.834+1247.65+550.834C1241.35+550.834+1236.02+552.73+1231.64+556.521C1227.27+560.313+1224.85+565.184+1224.38+571.134L1267.43+571.134ZM1288.43+580.584C1288.43+581.517+1288.43+582.451+1288.43+583.384C1288.43+584.317+1288.37+585.251+1288.25+586.184L1224.38+586.184C1224.61+589.217+1225.4+591.988+1226.74+594.496C1228.08+597.005+1229.86+599.163+1232.08+600.971C1234.3+602.78+1236.8+604.209+1239.6+605.259C1242.4+606.309+1245.32+606.834+1248.35+606.834C1253.6+606.834+1258.04+605.871+1261.65+603.946C1265.27+602.021+1268.25+599.367+1270.58+595.984L1284.58+607.184C1276.3+618.384+1264.28+623.984+1248.53+623.984C1242+623.984+1235.99+622.963+1230.5+620.921C1225.02+618.88+1220.27+615.992+1216.24+612.259C1212.22+608.526+1209.07+603.946+1206.79+598.521C1204.52+593.096+1203.38+586.942+1203.38+580.059C1203.38+573.292+1204.52+567.138+1206.79+561.596C1209.07+556.055+1212.19+551.33+1216.15+547.421C1220.12+543.513+1224.82+540.48+1230.24+538.321C1235.67+536.163+1241.53+535.084+1247.83+535.084C1253.66+535.084+1259.06+536.046+1264.02+537.971C1268.97+539.896+1273.26+542.755+1276.88+546.546C1280.5+550.338+1283.32+555.063+1285.37+560.721C1287.41+566.38+1288.43+573.001+1288.43+580.584Z" opacity="1" fill="#f3f0e2"/>
</g>
<path stroke="#989898" stroke-width="5" d="M738.102+496.706C742.256+488.207+750.114+483.511+755.651+486.218C761.188+488.924+762.309+498.009+758.154+506.508C753.999+515.008+746.142+519.704+740.605+516.997C735.067+514.29+733.947+505.206+738.102+496.706Z" fill="none" stroke-linecap="round" opacity="1" stroke-linejoin="round"/>
<path d="M734.553+490.712L764.473+507.036C765.827+507.775+766.326+509.471+765.587+510.825L747.906+543.233C747.167+544.587+745.471+545.085+744.117+544.347L714.197+528.022C712.843+527.284+712.345+525.587+713.083+524.234L730.765+491.826C731.503+490.472+733.2+489.974+734.553+490.712Z" opacity="1" fill="url(#LinearGradient)"/>
<path d="M730.927+491.713C732.795+488.132+742.15+489.348+751.82+494.429C761.49+499.511+767.815+506.533+765.946+510.114C764.078+513.696+754.723+512.48+745.053+507.398C735.382+502.317+729.058+495.294+730.927+491.713Z" opacity="1" fill="url(#LinearGradient_2)"/>
<path d="M623.372+584.542C623.372+538.115+661.008+500.479+707.434+500.479C753.861+500.479+791.497+538.115+791.497+584.542C791.497+630.968+753.861+668.604+707.434+668.604C661.008+668.604+623.372+630.968+623.372+584.542Z" opacity="1" fill="url(#LinearGradient_3)"/>
<path d="M631.514+548.47C665.738+540.942+771.01+590.656+783.394+620.573C763.483+662.514+713.343+680.372+671.403+660.461C629.462+640.551+611.604+590.411+631.514+548.47Z" opacity="1" fill="url(#LinearGradient_4)"/>
<path stroke="#dcdcdc" stroke-width="0.75" d="M764.306+478.919C768.124+478.919+771.966+478.899+775.83+478.86C1172.63+474.83+1806.96+264.917+1920+54.049" fill="none" stroke-linecap="round" opacity="1" stroke-linejoin="bevel"/>
<path stroke="#dcdcdc" stroke-width="0.5" d="M763.99+478.919C763.99+478.306+764.125+477.627+763.796+477.101" fill="none" stroke-linecap="round" opacity="1" stroke-linejoin="round"/>
<path stroke="#dcdcdc" stroke-width="0.5" d="M764.306+478.919C761.717+479.134+758.448+482.662+757.44+484.327" fill="none" stroke-linecap="butt" opacity="1" stroke-linejoin="round"/>
<path stroke="#dcdcdc" stroke-width="0.5" d="M754.619+488.489C754.935+487.94+755.348+487.463+755.824+487.029C757.69+485.329+760.522+484.297+762.245+482.229C762.606+481.795+764.383+479.211+763.923+478.793C762.296+477.312+762.53+480.213+763.733+480.855C763.808+480.895+764.115+481.018+764.19+480.855C764.547+480.081+762.82+478.522+762.168+479.174C761.581+479.763+762.524+482.185+763.275+481.809C764.116+481.388+762.272+478.896+761.291+479.633C760.42+480.286+761.383+483.695+762.664+482.84C763.861+482.041+761.467+480.066+760.451+480.702C759.092+481.552+761.099+484.504+761.901+483.336C762.524+482.43+760.88+480.174+760.07+480.931C759.413+481.545+759.975+485.248+760.985+484.406C762.05+483.518+759.353+481.67+758.696+482.573C757.96+483.585+759.602+486.268+760.68+485.513C762.389+484.316+757.268+481.037+758.162+483.871C758.207+484.014+758.592+484.553+758.696+484.635C759.02+484.89+759.559+484.956+759.955+484.978C762.586+485.125+759.708+480.966+759.001+481.733C757.85+482.981+761.085+485.262+762.245+483.68C763.23+482.335+761.199+479.73+760.184+481.084C759.438+482.08+760.87+484.357+762.054+483.68C763.536+482.832+761.525+479.237+760.871+480.129C759.875+481.489+762.534+482.465+763.122+481.656C763.482+481.161+763.314+478.563+762.245+479.098C761.288+479.576+762.699+481.113+763.542+480.664C764.373+480.22+763.93+477.337+762.779+478.182C761.34+479.238+763.993+481.61+764.114+479.785C764.148+479.271+764.002+479.133+763.58+478.869" fill="none" stroke-linecap="butt" opacity="1" stroke-linejoin="bevel"/>
</g>
<g id="Layer 3" vectornator:layerName="Layer 3">
<path d="M-0.000734246+601.859C-0.000734246+601.859+20.6946+622.962+171.721+600.031C295.909+625.769+322.872+611.05+451.275+600.031C553.449+615.066+591.799+626.658+708.902+611.683C804.203+628.125+934.232+624.14+1023.38+608.612C1065.87+623.298+1138.59+626.064+1266.29+611.749C1403.05+637.488+1468.72+623.254+1603.92+597.516C1734.39+623.254+1920+601.859+1920+601.859L1920+1080.88L-0.000734246+1080.88L-0.000734246+601.859Z" opacity="1" fill="#2d5d7c"/>
</g>
</svg>
