<?xml version="1.0" encoding="UTF-8" standalone="no"?> <!-- Created with Vectornator for iOS (http://vectornator.io/) --><!DOCTYPE svg PUBLIC "-//W3C//DTD SVG 1.1//EN" "http://www.w3.org/Graphics/SVG/1.1/DTD/svg11.dtd">
<svg style="fill-rule:evenodd;clip-rule:evenodd;stroke-linecap:round;stroke-linejoin:round;" xmlns:vectornator="http://vectornator.io" xmlns:xlink="http://www.w3.org/1999/xlink" xmlns="http://www.w3.org/2000/svg" xml:space="preserve" version="1.1" viewBox="0 0 1920 1080">
<metadata>
<vectornator:setting key="DisplayWhiteBackground" value="0"/>
<vectornator:setting key="RulersVisible" value="1"/>
<vectornator:setting key="GridSpacing" value="36"/>
<vectornator:setting key="Units" value="Pixels"/>
<vectornator:setting key="New" value="1"/>
<vectornator:setting key="DynamicGuides" value="1"/>
<vectornator:setting key="SnapToPoints" value="0"/>
<vectornator:setting key="CMYKEnabledKey" value="0"/>
<vectornator:setting key="SnapToGrid" value="0"/>
<vectornator:setting key="SnapToGuides" value="1"/>
<vectornator:setting key="SnapToEdges" value="0"/>
</metadata>
<defs>
<linearGradient y1="714.866" id="LinearGradient" x1="960" y2="-0.0563702" x2="960.843" gradientUnits="userSpaceOnUse" gradientTransform="matrix(1 0 0 1 -1.46233e-05 0)">
<stop stop-color="#71a5d9" offset="0"/>
<stop stop-color="#5494d3" offset="1"/>
</linearGradient>
<linearGradient y1="238.488" id="LinearGradient_2" x1="535.365" y2="238.488" x2="769.526" gradientUnits="userSpaceOnUse" gradientTransform="matrix(0.227141 0 0 0.227141 1033.74 676.618)">
<stop stop-color="#db1d34" offset="0.3675"/>
<stop stop-color="#ff3040" offset="0.9175"/>
</linearGradient>
<linearGradient y1="165.337" id="LinearGradient_3" x1="613.985" y2="165.337" x2="771.043" gradientUnits="userSpaceOnUse" gradientTransform="matrix(0.227141 0 0 0.227141 1033.74 676.618)">
<stop stop-color="#db1d34" offset="0"/>
<stop stop-color="#ff3040" offset="0.9175"/>
</linearGradient>
<linearGradient y1="533.513" id="LinearGradient_4" x1="141.909" y2="533.513" x2="882.091" gradientUnits="userSpaceOnUse" gradientTransform="matrix(0.227141 0 0 0.227141 1033.74 676.618)">
<stop stop-color="#e0e0e0" offset="0.415"/>
<stop stop-color="#ffffff" offset="0.9075"/>
</linearGradient>
<linearGradient y1="637.469" id="LinearGradient_5" x1="141.909" y2="637.469" x2="846.415" gradientUnits="userSpaceOnUse" gradientTransform="matrix(0.227141 0 0 0.227141 1033.74 676.618)">
<stop stop-color="#db1d34" offset="0.415"/>
<stop stop-color="#ff3040" offset="0.89"/>
</linearGradient>
<linearGradient y1="1080.75" id="LinearGradient_6" x1="959.972" y2="598.066" x2="960" gradientUnits="userSpaceOnUse" gradientTransform="matrix(1 0 0 1 1.06581e-14 200.285)">
<stop stop-color="#213cf2" offset="0"/>
<stop stop-color="#4b60f0" offset="1"/>
</linearGradient>
</defs>
<g id="Layer 2" vectornator:layerName="Layer 2">
<path d="M0.00914849+0L1920+0L1920+1078.95L0.00914849+1078.95L0.00914849+0Z" opacity="1" fill="url(#LinearGradient)"/>
</g>
<g id="Layer 4" vectornator:layerName="Layer 4">
<path d="M0.175268+818.838C0.175268+818.838+20.8833+811.66+72.0881+799.743C98.749+819.337+226.049+824.126+339.049+801.806C390.099+814.923+493.213+820.853+590.56+806.341C627.097+825.695+716.007+843.32+803.086+807.83C834.551+832.71+924.33+828.388+966.705+808.077C1009.2+822.763+1041.33+837.731+1169.61+806.018C1306.38+831.756+1388.28+839.987+1457.15+812.331C1504.63+821.697+1730.36+832.865+1768.58+798.351C1802.18+806.225+1920+808.439+1920+808.439L1920+1260.59L-0.000734246+1260.59L0.175268+818.838Z" opacity="1" fill="#365af2"/>
</g>
<g id="Layer 1" vectornator:layerName="Layer 1">
<path stroke="#989898" stroke-width="5" d="M1180.7+709.965C1184.86+701.465+1192.71+696.77+1198.25+699.476C1203.79+702.183+1204.91+711.268+1200.75+719.767C1196.6+728.267+1188.74+732.963+1183.2+730.256C1177.67+727.549+1176.55+718.465+1180.7+709.965Z" fill="none" stroke-linecap="round" opacity="1" stroke-linejoin="round"/>
<path d="M1177.15+703.971L1207.07+720.295C1208.43+721.034+1208.93+722.73+1208.19+724.084L1190.51+756.491C1189.77+757.845+1188.07+758.344+1186.72+757.605L1156.8+741.281C1155.44+740.542+1154.94+738.846+1155.68+737.492L1173.36+705.085C1174.1+703.731+1175.8+703.232+1177.15+703.971Z" opacity="1" fill="url(#LinearGradient_2)"/>
<path d="M1173.53+704.972C1175.4+701.39+1184.75+702.607+1194.42+707.688C1204.09+712.769+1210.41+719.792+1208.55+723.373C1206.68+726.955+1197.32+725.739+1187.65+720.657C1177.98+715.576+1171.66+708.553+1173.53+704.972Z" opacity="1" fill="url(#LinearGradient_3)"/>
<path d="M1065.97+797.8C1065.97+751.374+1103.61+713.738+1150.03+713.738C1196.46+713.738+1234.1+751.374+1234.1+797.8C1234.1+844.227+1196.46+881.863+1150.03+881.863C1103.61+881.863+1065.97+844.227+1065.97+797.8Z" opacity="1" fill="url(#LinearGradient_4)"/>
<path d="M1074.11+761.729C1108.34+754.2+1213.61+803.915+1225.99+833.832C1206.08+875.772+1155.94+893.631+1114+873.72C1072.06+853.81+1054.2+803.669+1074.11+761.729Z" opacity="1" fill="url(#LinearGradient_5)"/>
<path stroke="#ffffff" stroke-width="1" d="M1206.96+692.177C1209.32+692.177+1211.69+692.164+1214.07+692.138C1458.91+689.473+1850.33+550.625+1920.08+411.146" fill="none" stroke-linecap="round" opacity="1" stroke-linejoin="bevel"/>
<path stroke="#dcdcdc" stroke-width="0.5" d="M1206.59+692.177C1206.59+691.565+1206.72+690.885+1206.4+690.359" fill="none" stroke-linecap="round" opacity="1" stroke-linejoin="round"/>
<path stroke="#dcdcdc" stroke-width="0.5" d="M1206.91+692.177C1204.32+692.393+1201.05+695.921+1200.04+697.586" fill="none" stroke-linecap="butt" opacity="1" stroke-linejoin="round"/>
<path stroke="#ffffff" stroke-width="0.5" d="M1197.22+701.748C1197.53+701.199+1197.95+700.722+1198.42+700.288C1200.29+698.587+1203.12+697.556+1204.84+695.488C1205.21+695.054+1206.98+692.47+1206.52+692.051C1204.9+690.571+1205.13+693.472+1206.33+694.113C1206.41+694.154+1206.71+694.277+1206.79+694.113C1207.15+693.34+1205.42+691.781+1204.77+692.433C1204.18+693.021+1205.12+695.443+1205.87+695.068C1206.72+694.647+1204.87+692.154+1203.89+692.891C1203.02+693.545+1203.98+696.954+1205.26+696.099C1206.46+695.3+1204.07+693.325+1203.05+693.961C1201.69+694.811+1203.7+697.763+1204.5+696.595C1205.12+695.689+1203.48+693.433+1202.67+694.19C1202.01+694.803+1202.58+698.507+1203.59+697.664C1204.65+696.776+1201.95+694.928+1201.3+695.832C1200.56+696.844+1202.2+699.527+1203.28+698.772C1204.99+697.575+1199.87+694.295+1200.76+697.13C1200.81+697.273+1201.19+697.811+1201.3+697.894C1201.62+698.149+1202.16+698.215+1202.56+698.237C1205.19+698.383+1202.31+694.225+1201.6+694.992C1200.45+696.24+1203.69+698.521+1204.84+696.939C1205.83+695.594+1203.8+692.989+1202.78+694.342C1202.04+695.339+1203.47+697.616+1204.65+696.939C1206.14+696.091+1204.12+692.496+1203.47+693.388C1202.47+694.748+1205.13+695.724+1205.72+694.915C1206.08+694.42+1205.91+691.822+1204.84+692.357C1203.89+692.835+1205.3+694.372+1206.14+693.922C1206.97+693.479+1206.53+690.596+1205.38+691.44C1203.94+692.496+1206.59+694.868+1206.71+693.044C1206.75+692.53+1206.6+692.392+1206.18+692.128" fill="none" stroke-linecap="butt" opacity="1" stroke-linejoin="bevel"/>
<g opacity="1">
<path d="M638.015+356.166C636.895+354.646+635.435+353.536+633.635+352.836C631.835+352.136+630.075+351.786+628.355+351.786C626.155+351.786+624.155+352.186+622.355+352.986C620.555+353.786+619.005+354.886+617.705+356.286C616.405+357.686+615.405+359.326+614.705+361.206C614.005+363.086+613.655+365.126+613.655+367.326C613.655+369.646+613.995+371.766+614.675+373.686C615.355+375.606+616.325+377.256+617.585+378.636C618.845+380.016+620.355+381.086+622.115+381.846C623.875+382.606+625.855+382.986+628.055+382.986C630.335+382.986+632.355+382.536+634.115+381.636C635.875+380.736+637.295+379.546+638.375+378.066L644.435+382.326C642.555+384.686+640.255+386.516+637.535+387.816C634.815+389.116+631.635+389.766+627.995+389.766C624.675+389.766+621.625+389.216+618.845+388.116C616.065+387.016+613.675+385.476+611.675+383.496C609.675+381.516+608.115+379.156+606.995+376.416C605.875+373.676+605.315+370.646+605.315+367.326C605.315+363.926+605.905+360.856+607.085+358.116C608.265+355.376+609.885+353.046+611.945+351.126C614.005+349.206+616.435+347.726+619.235+346.686C622.035+345.646+625.075+345.126+628.355+345.126C629.715+345.126+631.135+345.256+632.615+345.516C634.095+345.776+635.515+346.176+636.875+346.716C638.235+347.256+639.515+347.926+640.715+348.726C641.915+349.526+642.935+350.486+643.775+351.606L638.015+356.166Z" opacity="1" fill="#ffffff"/>
<path d="M647.075+374.166C647.075+371.886+647.485+369.816+648.305+367.956C649.125+366.096+650.235+364.506+651.635+363.186C653.035+361.866+654.695+360.846+656.615+360.126C658.535+359.406+660.575+359.046+662.735+359.046C664.895+359.046+666.935+359.406+668.855+360.126C670.775+360.846+672.435+361.866+673.835+363.186C675.235+364.506+676.345+366.096+677.165+367.956C677.985+369.816+678.395+371.886+678.395+374.166C678.395+376.446+677.985+378.526+677.165+380.406C676.345+382.286+675.235+383.896+673.835+385.236C672.435+386.576+670.775+387.626+668.855+388.386C666.935+389.146+664.895+389.526+662.735+389.526C660.575+389.526+658.535+389.146+656.615+388.386C654.695+387.626+653.035+386.576+651.635+385.236C650.235+383.896+649.125+382.286+648.305+380.406C647.485+378.526+647.075+376.446+647.075+374.166ZM654.395+374.166C654.395+375.286+654.565+376.406+654.905+377.526C655.245+378.646+655.755+379.646+656.435+380.526C657.115+381.406+657.975+382.126+659.015+382.686C660.055+383.246+661.295+383.526+662.735+383.526C664.175+383.526+665.415+383.246+666.455+382.686C667.495+382.126+668.355+381.406+669.035+380.526C669.715+379.646+670.225+378.646+670.565+377.526C670.905+376.406+671.075+375.286+671.075+374.166C671.075+373.046+670.905+371.936+670.565+370.836C670.225+369.736+669.715+368.746+669.035+367.866C668.355+366.986+667.495+366.276+666.455+365.736C665.415+365.196+664.175+364.926+662.735+364.926C661.295+364.926+660.055+365.196+659.015+365.736C657.975+366.276+657.115+366.986+656.435+367.866C655.755+368.746+655.245+369.736+654.905+370.836C654.565+371.936+654.395+373.046+654.395+374.166Z" opacity="1" fill="#ffffff"/>
<path d="M719.735+359.046C721.615+359.046+723.225+359.376+724.565+360.036C725.905+360.696+727.005+361.566+727.865+362.646C728.725+363.726+729.355+364.966+729.755+366.366C730.155+367.766+730.355+369.206+730.355+370.686L730.355+388.686L723.155+388.686L723.155+372.726C723.155+371.886+723.095+371.006+722.975+370.086C722.855+369.166+722.595+368.336+722.195+367.596C721.795+366.856+721.245+366.246+720.545+365.766C719.845+365.286+718.915+365.046+717.755+365.046C716.635+365.046+715.675+365.286+714.875+365.766C714.075+366.246+713.415+366.866+712.895+367.626C712.375+368.386+711.995+369.236+711.755+370.176C711.515+371.116+711.395+372.046+711.395+372.966L711.395+388.686L704.195+388.686L704.195+371.286C704.195+369.486+703.765+367.996+702.905+366.816C702.045+365.636+700.695+365.046+698.855+365.046C697.775+365.046+696.835+365.276+696.035+365.736C695.235+366.196+694.585+366.786+694.085+367.506C693.585+368.226+693.205+369.056+692.945+369.996C692.685+370.936+692.555+371.886+692.555+372.846L692.555+388.686L685.355+388.686L685.355+359.886L692.195+359.886L692.195+364.506L692.315+364.506C692.635+363.786+693.065+363.106+693.605+362.466C694.145+361.826+694.785+361.246+695.525+360.726C696.265+360.206+697.115+359.796+698.075+359.496C699.035+359.196+700.095+359.046+701.255+359.046C703.495+359.046+705.355+359.546+706.835+360.546C708.315+361.546+709.455+362.866+710.255+364.506C711.215+362.746+712.495+361.396+714.095+360.456C715.695+359.516+717.575+359.046+719.735+359.046Z" opacity="1" fill="#ffffff"/>
<path d="M759.035+371.406C759.035+370.486+758.905+369.606+758.645+368.766C758.385+367.926+757.975+367.186+757.415+366.546C756.855+365.906+756.145+365.396+755.285+365.016C754.425+364.636+753.415+364.446+752.255+364.446C750.095+364.446+748.265+365.096+746.765+366.396C745.265+367.696+744.435+369.366+744.275+371.406L759.035+371.406ZM766.235+374.646C766.235+374.966+766.235+375.286+766.235+375.606C766.235+375.926+766.215+376.246+766.175+376.566L744.275+376.566C744.355+377.606+744.625+378.556+745.085+379.416C745.545+380.276+746.155+381.016+746.915+381.636C747.675+382.256+748.535+382.746+749.495+383.106C750.455+383.466+751.455+383.646+752.495+383.646C754.295+383.646+755.815+383.316+757.055+382.656C758.295+381.996+759.315+381.086+760.115+379.926L764.915+383.766C762.075+387.606+757.955+389.526+752.555+389.526C750.315+389.526+748.255+389.176+746.375+388.476C744.495+387.776+742.865+386.786+741.485+385.506C740.105+384.226+739.025+382.656+738.245+380.796C737.465+378.936+737.075+376.826+737.075+374.466C737.075+372.146+737.465+370.036+738.245+368.136C739.025+366.236+740.095+364.616+741.455+363.276C742.815+361.936+744.425+360.896+746.285+360.156C748.145+359.416+750.155+359.046+752.315+359.046C754.315+359.046+756.165+359.376+757.865+360.036C759.565+360.696+761.035+361.676+762.275+362.976C763.515+364.276+764.485+365.896+765.185+367.836C765.885+369.776+766.235+372.046+766.235+374.646Z" opacity="1" fill="#ffffff"/>
<path d="M795.095+359.886L795.095+363.906L795.275+363.906C795.635+363.346+796.105+362.776+796.685+362.196C797.265+361.616+797.975+361.096+798.815+360.636C799.655+360.176+800.605+359.796+801.665+359.496C802.725+359.196+803.915+359.046+805.235+359.046C807.275+359.046+809.155+359.436+810.875+360.216C812.595+360.996+814.075+362.066+815.315+363.426C816.555+364.786+817.515+366.386+818.195+368.226C818.875+370.066+819.215+372.046+819.215+374.166C819.215+376.286+818.885+378.276+818.225+380.136C817.565+381.996+816.625+383.616+815.405+384.996C814.185+386.376+812.705+387.476+810.965+388.296C809.225+389.116+807.255+389.526+805.055+389.526C803.015+389.526+801.145+389.106+799.445+388.266C797.745+387.426+796.435+386.286+795.515+384.846L795.395+384.846L795.395+403.086L788.195+403.086L788.195+359.886L795.095+359.886ZM811.895+374.166C811.895+373.046+811.725+371.936+811.385+370.836C811.045+369.736+810.535+368.746+809.855+367.866C809.175+366.986+808.315+366.276+807.275+365.736C806.235+365.196+805.015+364.926+803.615+364.926C802.295+364.926+801.115+365.206+800.075+365.766C799.035+366.326+798.145+367.046+797.405+367.926C796.665+368.806+796.105+369.806+795.725+370.926C795.345+372.046+795.155+373.166+795.155+374.286C795.155+375.406+795.345+376.516+795.725+377.616C796.105+378.716+796.665+379.706+797.405+380.586C798.145+381.466+799.035+382.176+800.075+382.716C801.115+383.256+802.295+383.526+803.615+383.526C805.015+383.526+806.235+383.246+807.275+382.686C808.315+382.126+809.175+381.406+809.855+380.526C810.535+379.646+811.045+378.646+811.385+377.526C811.725+376.406+811.895+375.286+811.895+374.166Z" opacity="1" fill="#ffffff"/>
<path d="M826.175+359.886L833.075+359.886L833.075+364.686L833.195+364.686C833.995+363.006+835.115+361.646+836.555+360.606C837.995+359.566+839.675+359.046+841.595+359.046C841.875+359.046+842.175+359.056+842.495+359.076C842.815+359.096+843.095+359.146+843.335+359.226L843.335+365.826C842.855+365.706+842.445+365.626+842.105+365.586C841.765+365.546+841.435+365.526+841.115+365.526C839.475+365.526+838.155+365.826+837.155+366.426C836.155+367.026+835.375+367.746+834.815+368.586C834.255+369.426+833.875+370.286+833.675+371.166C833.475+372.046+833.375+372.746+833.375+373.266L833.375+388.686L826.175+388.686L826.175+359.886Z" opacity="1" fill="#ffffff"/>
<path d="M868.295+371.406C868.295+370.486+868.165+369.606+867.905+368.766C867.645+367.926+867.235+367.186+866.675+366.546C866.115+365.906+865.405+365.396+864.545+365.016C863.685+364.636+862.675+364.446+861.515+364.446C859.355+364.446+857.525+365.096+856.025+366.396C854.525+367.696+853.695+369.366+853.535+371.406L868.295+371.406ZM875.495+374.646C875.495+374.966+875.495+375.286+875.495+375.606C875.495+375.926+875.475+376.246+875.435+376.566L853.535+376.566C853.615+377.606+853.885+378.556+854.345+379.416C854.805+380.276+855.415+381.016+856.175+381.636C856.935+382.256+857.795+382.746+858.755+383.106C859.715+383.466+860.715+383.646+861.755+383.646C863.555+383.646+865.075+383.316+866.315+382.656C867.555+381.996+868.575+381.086+869.375+379.926L874.175+383.766C871.335+387.606+867.215+389.526+861.815+389.526C859.575+389.526+857.515+389.176+855.635+388.476C853.755+387.776+852.125+386.786+850.745+385.506C849.365+384.226+848.285+382.656+847.505+380.796C846.725+378.936+846.335+376.826+846.335+374.466C846.335+372.146+846.725+370.036+847.505+368.136C848.285+366.236+849.355+364.616+850.715+363.276C852.075+361.936+853.685+360.896+855.545+360.156C857.405+359.416+859.415+359.046+861.575+359.046C863.575+359.046+865.425+359.376+867.125+360.036C868.825+360.696+870.295+361.676+871.535+362.976C872.775+364.276+873.745+365.896+874.445+367.836C875.145+369.776+875.495+372.046+875.495+374.646Z" opacity="1" fill="#ffffff"/>
<path d="M889.355+359.886L889.355+363.906L889.535+363.906C889.895+363.346+890.365+362.776+890.945+362.196C891.525+361.616+892.235+361.096+893.075+360.636C893.915+360.176+894.865+359.796+895.925+359.496C896.985+359.196+898.175+359.046+899.495+359.046C901.535+359.046+903.415+359.436+905.135+360.216C906.855+360.996+908.335+362.066+909.575+363.426C910.815+364.786+911.775+366.386+912.455+368.226C913.135+370.066+913.475+372.046+913.475+374.166C913.475+376.286+913.145+378.276+912.485+380.136C911.825+381.996+910.885+383.616+909.665+384.996C908.445+386.376+906.965+387.476+905.225+388.296C903.485+389.116+901.515+389.526+899.315+389.526C897.275+389.526+895.405+389.106+893.705+388.266C892.005+387.426+890.695+386.286+889.775+384.846L889.655+384.846L889.655+403.086L882.455+403.086L882.455+359.886L889.355+359.886ZM906.155+374.166C906.155+373.046+905.985+371.936+905.645+370.836C905.305+369.736+904.795+368.746+904.115+367.866C903.435+366.986+902.575+366.276+901.535+365.736C900.495+365.196+899.275+364.926+897.875+364.926C896.555+364.926+895.375+365.206+894.335+365.766C893.295+366.326+892.405+367.046+891.665+367.926C890.925+368.806+890.365+369.806+889.985+370.926C889.605+372.046+889.415+373.166+889.415+374.286C889.415+375.406+889.605+376.516+889.985+377.616C890.365+378.716+890.925+379.706+891.665+380.586C892.405+381.466+893.295+382.176+894.335+382.716C895.375+383.256+896.555+383.526+897.875+383.526C899.275+383.526+900.495+383.246+901.535+382.686C902.575+382.126+903.435+381.406+904.115+380.526C904.795+379.646+905.305+378.646+905.645+377.526C905.985+376.406+906.155+375.286+906.155+374.166Z" opacity="1" fill="#ffffff"/>
<path d="M938.315+385.026L938.135+385.026C937.415+386.306+936.255+387.356+934.655+388.176C933.055+388.996+931.235+389.406+929.195+389.406C928.035+389.406+926.825+389.256+925.565+388.956C924.305+388.656+923.145+388.156+922.085+387.456C921.025+386.756+920.145+385.836+919.445+384.696C918.745+383.556+918.395+382.146+918.395+380.466C918.395+378.306+919.005+376.586+920.225+375.306C921.445+374.026+923.015+373.046+924.935+372.366C926.855+371.686+928.985+371.236+931.325+371.016C933.665+370.796+935.955+370.686+938.195+370.686L938.195+369.966C938.195+368.166+937.545+366.836+936.245+365.976C934.945+365.116+933.395+364.686+931.595+364.686C930.075+364.686+928.615+365.006+927.215+365.646C925.815+366.286+924.655+367.066+923.735+367.986L920.015+363.606C921.655+362.086+923.545+360.946+925.685+360.186C927.825+359.426+929.995+359.046+932.195+359.046C934.755+359.046+936.865+359.406+938.525+360.126C940.185+360.846+941.495+361.786+942.455+362.946C943.415+364.106+944.085+365.406+944.465+366.846C944.845+368.286+945.035+369.726+945.035+371.166L945.035+388.686L938.315+388.686L938.315+385.026ZM938.195+375.546L936.575+375.546C935.415+375.546+934.195+375.596+932.915+375.696C931.635+375.796+930.455+376.016+929.375+376.356C928.295+376.696+927.395+377.176+926.675+377.796C925.955+378.416+925.595+379.266+925.595+380.346C925.595+381.026+925.745+381.596+926.045+382.056C926.345+382.516+926.735+382.886+927.215+383.166C927.695+383.446+928.235+383.646+928.835+383.766C929.435+383.886+930.035+383.946+930.635+383.946C933.115+383.946+934.995+383.286+936.275+381.966C937.555+380.646+938.195+378.846+938.195+376.566L938.195+375.546Z" opacity="1" fill="#ffffff"/>
<path d="M953.435+359.886L960.335+359.886L960.335+364.686L960.455+364.686C961.255+363.006+962.375+361.646+963.815+360.606C965.255+359.566+966.935+359.046+968.855+359.046C969.135+359.046+969.435+359.056+969.755+359.076C970.075+359.096+970.355+359.146+970.595+359.226L970.595+365.826C970.115+365.706+969.705+365.626+969.365+365.586C969.025+365.546+968.695+365.526+968.375+365.526C966.735+365.526+965.415+365.826+964.415+366.426C963.415+367.026+962.635+367.746+962.075+368.586C961.515+369.426+961.135+370.286+960.935+371.166C960.735+372.046+960.635+372.746+960.635+373.266L960.635+388.686L953.435+388.686L953.435+359.886Z" opacity="1" fill="#ffffff"/>
<path d="M995.555+371.406C995.555+370.486+995.425+369.606+995.165+368.766C994.905+367.926+994.495+367.186+993.935+366.546C993.375+365.906+992.665+365.396+991.805+365.016C990.945+364.636+989.935+364.446+988.775+364.446C986.615+364.446+984.785+365.096+983.285+366.396C981.785+367.696+980.955+369.366+980.795+371.406L995.555+371.406ZM1002.75+374.646C1002.75+374.966+1002.75+375.286+1002.75+375.606C1002.75+375.926+1002.73+376.246+1002.69+376.566L980.795+376.566C980.875+377.606+981.145+378.556+981.605+379.416C982.065+380.276+982.675+381.016+983.435+381.636C984.195+382.256+985.055+382.746+986.015+383.106C986.975+383.466+987.975+383.646+989.015+383.646C990.815+383.646+992.335+383.316+993.575+382.656C994.815+381.996+995.835+381.086+996.635+379.926L1001.43+383.766C998.595+387.606+994.475+389.526+989.075+389.526C986.835+389.526+984.775+389.176+982.895+388.476C981.015+387.776+979.385+386.786+978.005+385.506C976.625+384.226+975.545+382.656+974.765+380.796C973.985+378.936+973.595+376.826+973.595+374.466C973.595+372.146+973.985+370.036+974.765+368.136C975.545+366.236+976.615+364.616+977.975+363.276C979.335+361.936+980.945+360.896+982.805+360.156C984.665+359.416+986.675+359.046+988.835+359.046C990.835+359.046+992.685+359.376+994.385+360.036C996.085+360.696+997.555+361.676+998.795+362.976C1000.03+364.276+1001+365.896+1001.7+367.836C1002.4+369.776+1002.75+372.046+1002.75+374.646Z" opacity="1" fill="#ffffff"/>
<path d="M1038.99+388.686L1032.15+388.686L1032.15+384.366L1032.03+384.366C1031.03+386.046+1029.64+387.326+1027.86+388.206C1026.08+389.086+1024.17+389.526+1022.13+389.526C1019.93+389.526+1017.96+389.116+1016.22+388.296C1014.48+387.476+1013+386.376+1011.78+384.996C1010.56+383.616+1009.62+381.996+1008.96+380.136C1008.3+378.276+1007.97+376.286+1007.97+374.166C1007.97+372.046+1008.31+370.066+1008.99+368.226C1009.67+366.386+1010.63+364.786+1011.87+363.426C1013.11+362.066+1014.59+360.996+1016.31+360.216C1018.03+359.436+1019.91+359.046+1021.95+359.046C1023.27+359.046+1024.45+359.196+1025.49+359.496C1026.53+359.796+1027.44+360.166+1028.22+360.606C1029+361.046+1029.67+361.526+1030.23+362.046C1030.79+362.566+1031.25+363.066+1031.61+363.546L1031.79+363.546L1031.79+343.326L1038.99+343.326L1038.99+388.686ZM1015.29+374.166C1015.29+375.286+1015.46+376.406+1015.8+377.526C1016.14+378.646+1016.65+379.646+1017.33+380.526C1018.01+381.406+1018.87+382.126+1019.91+382.686C1020.95+383.246+1022.17+383.526+1023.57+383.526C1024.89+383.526+1026.07+383.256+1027.11+382.716C1028.15+382.176+1029.04+381.466+1029.78+380.586C1030.52+379.706+1031.08+378.716+1031.46+377.616C1031.84+376.516+1032.03+375.406+1032.03+374.286C1032.03+373.166+1031.84+372.046+1031.46+370.926C1031.08+369.806+1030.52+368.806+1029.78+367.926C1029.04+367.046+1028.15+366.326+1027.11+365.766C1026.07+365.206+1024.89+364.926+1023.57+364.926C1022.17+364.926+1020.95+365.196+1019.91+365.736C1018.87+366.276+1018.01+366.986+1017.33+367.866C1016.65+368.746+1016.14+369.736+1015.8+370.836C1015.46+371.936+1015.29+373.046+1015.29+374.166Z" opacity="1" fill="#ffffff"/>
<path d="M1058.67+359.886L1066.47+359.886L1072.47+380.526L1072.59+380.526L1078.77+359.886L1086.45+359.886L1092.69+380.526L1092.81+380.526L1098.93+359.886L1106.43+359.886L1096.47+388.686L1089.15+388.686L1082.61+368.526L1082.49+368.526L1076.01+388.686L1068.69+388.686L1058.67+359.886Z" opacity="1" fill="#ffffff"/>
<path d="M1111.11+359.886L1118.31+359.886L1118.31+388.686L1111.11+388.686L1111.11+359.886ZM1110.09+350.106C1110.09+348.946+1110.52+347.936+1111.38+347.076C1112.24+346.216+1113.33+345.786+1114.65+345.786C1115.97+345.786+1117.08+346.196+1117.98+347.016C1118.88+347.836+1119.33+348.866+1119.33+350.106C1119.33+351.346+1118.88+352.376+1117.98+353.196C1117.08+354.016+1115.97+354.426+1114.65+354.426C1113.33+354.426+1112.24+353.996+1111.38+353.136C1110.52+352.276+1110.09+351.266+1110.09+350.106Z" opacity="1" fill="#ffffff"/>
<path d="M1122.93+365.646L1122.93+359.886L1127.97+359.886L1127.97+351.546L1135.05+351.546L1135.05+359.886L1142.25+359.886L1142.25+365.646L1135.05+365.646L1135.05+379.026C1135.05+380.306+1135.28+381.366+1135.74+382.206C1136.2+383.046+1137.23+383.466+1138.83+383.466C1139.31+383.466+1139.83+383.416+1140.39+383.316C1140.95+383.216+1141.45+383.066+1141.89+382.866L1142.13+388.506C1141.49+388.746+1140.73+388.936+1139.85+389.076C1138.97+389.216+1138.13+389.286+1137.33+389.286C1135.41+389.286+1133.85+389.016+1132.65+388.476C1131.45+387.936+1130.5+387.196+1129.8+386.256C1129.1+385.316+1128.62+384.236+1128.36+383.016C1128.1+381.796+1127.97+380.486+1127.97+379.086L1127.97+365.646L1122.93+365.646Z" opacity="1" fill="#ffffff"/>
<path d="M1163.49+359.046C1165.37+359.046+1166.98+359.376+1168.32+360.036C1169.66+360.696+1170.76+361.566+1171.62+362.646C1172.48+363.726+1173.11+364.966+1173.51+366.366C1173.91+367.766+1174.11+369.206+1174.11+370.686L1174.11+388.686L1166.91+388.686L1166.91+372.846C1166.91+372.006+1166.85+371.136+1166.73+370.236C1166.61+369.336+1166.36+368.516+1165.98+367.776C1165.6+367.036+1165.06+366.426+1164.36+365.946C1163.66+365.466+1162.73+365.226+1161.57+365.226C1160.41+365.226+1159.41+365.446+1158.57+365.886C1157.73+366.326+1157.03+366.916+1156.47+367.656C1155.91+368.396+1155.49+369.226+1155.21+370.146C1154.93+371.066+1154.79+372.006+1154.79+372.966L1154.79+388.686L1147.59+388.686L1147.59+343.326L1154.79+343.326L1154.79+363.906L1154.91+363.906C1155.19+363.306+1155.6+362.716+1156.14+362.136C1156.68+361.556+1157.31+361.036+1158.03+360.576C1158.75+360.116+1159.57+359.746+1160.49+359.466C1161.41+359.186+1162.41+359.046+1163.49+359.046Z" opacity="1" fill="#ffffff"/>
<path d="M1193.19+359.886L1201.17+359.886L1209.21+380.826L1209.33+380.826L1216.47+359.886L1223.97+359.886L1210.35+394.866C1209.83+396.186+1209.27+397.356+1208.67+398.376C1208.07+399.396+1207.35+400.256+1206.51+400.956C1205.67+401.656+1204.68+402.186+1203.54+402.546C1202.4+402.906+1201.03+403.086+1199.43+403.086C1198.83+403.086+1198.22+403.056+1197.6+402.996C1196.98+402.936+1196.35+402.826+1195.71+402.666L1196.31+396.426C1196.79+396.586+1197.26+396.696+1197.72+396.756C1198.18+396.816+1198.61+396.846+1199.01+396.846C1199.77+396.846+1200.41+396.756+1200.93+396.576C1201.45+396.396+1201.89+396.116+1202.25+395.736C1202.61+395.356+1202.93+394.886+1203.21+394.326C1203.49+393.766+1203.79+393.106+1204.11+392.346L1205.55+388.686L1193.19+359.886Z" opacity="1" fill="#ffffff"/>
<path d="M1226.61+374.166C1226.61+371.886+1227.02+369.816+1227.84+367.956C1228.66+366.096+1229.77+364.506+1231.17+363.186C1232.57+361.866+1234.23+360.846+1236.15+360.126C1238.07+359.406+1240.11+359.046+1242.27+359.046C1244.43+359.046+1246.47+359.406+1248.39+360.126C1250.31+360.846+1251.97+361.866+1253.37+363.186C1254.77+364.506+1255.88+366.096+1256.7+367.956C1257.52+369.816+1257.93+371.886+1257.93+374.166C1257.93+376.446+1257.52+378.526+1256.7+380.406C1255.88+382.286+1254.77+383.896+1253.37+385.236C1251.97+386.576+1250.31+387.626+1248.39+388.386C1246.47+389.146+1244.43+389.526+1242.27+389.526C1240.11+389.526+1238.07+389.146+1236.15+388.386C1234.23+387.626+1232.57+386.576+1231.17+385.236C1229.77+383.896+1228.66+382.286+1227.84+380.406C1227.02+378.526+1226.61+376.446+1226.61+374.166ZM1233.93+374.166C1233.93+375.286+1234.1+376.406+1234.44+377.526C1234.78+378.646+1235.29+379.646+1235.97+380.526C1236.65+381.406+1237.51+382.126+1238.55+382.686C1239.59+383.246+1240.83+383.526+1242.27+383.526C1243.71+383.526+1244.95+383.246+1245.99+382.686C1247.03+382.126+1247.89+381.406+1248.57+380.526C1249.25+379.646+1249.76+378.646+1250.1+377.526C1250.44+376.406+1250.61+375.286+1250.61+374.166C1250.61+373.046+1250.44+371.936+1250.1+370.836C1249.76+369.736+1249.25+368.746+1248.57+367.866C1247.89+366.986+1247.03+366.276+1245.99+365.736C1244.95+365.196+1243.71+364.926+1242.27+364.926C1240.83+364.926+1239.59+365.196+1238.55+365.736C1237.51+366.276+1236.65+366.986+1235.97+367.866C1235.29+368.746+1234.78+369.736+1234.44+370.836C1234.1+371.936+1233.93+373.046+1233.93+374.166Z" opacity="1" fill="#ffffff"/>
<path d="M1291.17+388.686L1284.33+388.686L1284.33+384.066L1284.21+384.066C1283.57+385.506+1282.46+386.776+1280.88+387.876C1279.3+388.976+1277.43+389.526+1275.27+389.526C1273.39+389.526+1271.78+389.196+1270.44+388.536C1269.1+387.876+1268+387.006+1267.14+385.926C1266.28+384.846+1265.65+383.606+1265.25+382.206C1264.85+380.806+1264.65+379.366+1264.65+377.886L1264.65+359.886L1271.85+359.886L1271.85+375.846C1271.85+376.686+1271.91+377.566+1272.03+378.486C1272.15+379.406+1272.41+380.236+1272.81+380.976C1273.21+381.716+1273.76+382.326+1274.46+382.806C1275.16+383.286+1276.09+383.526+1277.25+383.526C1278.37+383.526+1279.36+383.296+1280.22+382.836C1281.08+382.376+1281.78+381.786+1282.32+381.066C1282.86+380.346+1283.27+379.516+1283.55+378.576C1283.83+377.636+1283.97+376.686+1283.97+375.726L1283.97+359.886L1291.17+359.886L1291.17+388.686Z" opacity="1" fill="#ffffff"/>
<path d="M1299.81+359.886L1306.71+359.886L1306.71+364.686L1306.83+364.686C1307.63+363.006+1308.75+361.646+1310.19+360.606C1311.63+359.566+1313.31+359.046+1315.23+359.046C1315.51+359.046+1315.81+359.056+1316.13+359.076C1316.45+359.096+1316.73+359.146+1316.97+359.226L1316.97+365.826C1316.49+365.706+1316.08+365.626+1315.74+365.586C1315.4+365.546+1315.07+365.526+1314.75+365.526C1313.11+365.526+1311.79+365.826+1310.79+366.426C1309.79+367.026+1309.01+367.746+1308.45+368.586C1307.89+369.426+1307.51+370.286+1307.31+371.166C1307.11+372.046+1307.01+372.746+1307.01+373.266L1307.01+388.686L1299.81+388.686L1299.81+359.886Z" opacity="1" fill="#ffffff"/>
<path d="M576.935+428.166L591.695+428.166C593.695+428.166+595.635+428.376+597.515+428.796C599.395+429.216+601.065+429.906+602.525+430.866C603.985+431.826+605.155+433.086+606.035+434.646C606.915+436.206+607.355+438.106+607.355+440.346C607.355+443.426+606.485+445.936+604.745+447.876C603.005+449.816+600.635+451.126+597.635+451.806L608.975+470.646L599.855+470.646L590.015+452.646L584.495+452.646L584.495+470.646L576.935+470.646L576.935+428.166ZM590.675+446.466C591.755+446.466+592.835+446.386+593.915+446.226C594.995+446.066+595.965+445.766+596.825+445.326C597.685+444.886+598.395+444.256+598.955+443.436C599.515+442.616+599.795+441.566+599.795+440.286C599.795+439.126+599.535+438.176+599.015+437.436C598.495+436.696+597.835+436.106+597.035+435.666C596.235+435.226+595.325+434.926+594.305+434.766C593.285+434.606+592.295+434.526+591.335+434.526L584.495+434.526L584.495+446.466L590.675+446.466Z" opacity="1" fill="#ffffff"/>
<path d="M634.595+453.366C634.595+452.446+634.465+451.566+634.205+450.726C633.945+449.886+633.535+449.146+632.975+448.506C632.415+447.866+631.705+447.356+630.845+446.976C629.985+446.596+628.975+446.406+627.815+446.406C625.655+446.406+623.825+447.056+622.325+448.356C620.825+449.656+619.995+451.326+619.835+453.366L634.595+453.366ZM641.795+456.606C641.795+456.926+641.795+457.246+641.795+457.566C641.795+457.886+641.775+458.206+641.735+458.526L619.835+458.526C619.915+459.566+620.185+460.516+620.645+461.376C621.105+462.236+621.715+462.976+622.475+463.596C623.235+464.216+624.095+464.706+625.055+465.066C626.015+465.426+627.015+465.606+628.055+465.606C629.855+465.606+631.375+465.276+632.615+464.616C633.855+463.956+634.875+463.046+635.675+461.886L640.475+465.726C637.635+469.566+633.515+471.486+628.115+471.486C625.875+471.486+623.815+471.136+621.935+470.436C620.055+469.736+618.425+468.746+617.045+467.466C615.665+466.186+614.585+464.616+613.805+462.756C613.025+460.896+612.635+458.786+612.635+456.426C612.635+454.106+613.025+451.996+613.805+450.096C614.585+448.196+615.655+446.576+617.015+445.236C618.375+443.896+619.985+442.856+621.845+442.116C623.705+441.376+625.715+441.006+627.875+441.006C629.875+441.006+631.725+441.336+633.425+441.996C635.125+442.656+636.595+443.636+637.835+444.936C639.075+446.236+640.045+447.856+640.745+449.796C641.445+451.736+641.795+454.006+641.795+456.606Z" opacity="1" fill="#ffffff"/>
<path d="M666.635+466.986L666.455+466.986C665.735+468.266+664.575+469.316+662.975+470.136C661.375+470.956+659.555+471.366+657.515+471.366C656.355+471.366+655.145+471.216+653.885+470.916C652.625+470.616+651.465+470.116+650.405+469.416C649.345+468.716+648.465+467.796+647.765+466.656C647.065+465.516+646.715+464.106+646.715+462.426C646.715+460.266+647.325+458.546+648.545+457.266C649.765+455.986+651.335+455.006+653.255+454.326C655.175+453.646+657.305+453.196+659.645+452.976C661.985+452.756+664.275+452.646+666.515+452.646L666.515+451.926C666.515+450.126+665.865+448.796+664.565+447.936C663.265+447.076+661.715+446.646+659.915+446.646C658.395+446.646+656.935+446.966+655.535+447.606C654.135+448.246+652.975+449.026+652.055+449.946L648.335+445.566C649.975+444.046+651.865+442.906+654.005+442.146C656.145+441.386+658.315+441.006+660.515+441.006C663.075+441.006+665.185+441.366+666.845+442.086C668.505+442.806+669.815+443.746+670.775+444.906C671.735+446.066+672.405+447.366+672.785+448.806C673.165+450.246+673.355+451.686+673.355+453.126L673.355+470.646L666.635+470.646L666.635+466.986ZM666.515+457.506L664.895+457.506C663.735+457.506+662.515+457.556+661.235+457.656C659.955+457.756+658.775+457.976+657.695+458.316C656.615+458.656+655.715+459.136+654.995+459.756C654.275+460.376+653.915+461.226+653.915+462.306C653.915+462.986+654.065+463.556+654.365+464.016C654.665+464.476+655.055+464.846+655.535+465.126C656.015+465.406+656.555+465.606+657.155+465.726C657.755+465.846+658.355+465.906+658.955+465.906C661.435+465.906+663.315+465.246+664.595+463.926C665.875+462.606+666.515+460.806+666.515+458.526L666.515+457.506Z" opacity="1" fill="#ffffff"/>
<path d="M701.435+449.826C700.875+449.026+700.035+448.356+698.915+447.816C697.795+447.276+696.655+447.006+695.495+447.006C694.175+447.006+693.015+447.276+692.015+447.816C691.015+448.356+690.185+449.066+689.525+449.946C688.865+450.826+688.375+451.816+688.055+452.916C687.735+454.016+687.575+455.126+687.575+456.246C687.575+457.366+687.745+458.476+688.085+459.576C688.425+460.676+688.935+461.666+689.615+462.546C690.295+463.426+691.145+464.136+692.165+464.676C693.185+465.216+694.375+465.486+695.735+465.486C696.855+465.486+697.975+465.266+699.095+464.826C700.215+464.386+701.115+463.746+701.795+462.906L706.295+467.466C705.095+468.746+703.565+469.736+701.705+470.436C699.845+471.136+697.835+471.486+695.675+471.486C693.555+471.486+691.545+471.146+689.645+470.466C687.745+469.786+686.085+468.786+684.665+467.466C683.245+466.146+682.125+464.546+681.305+462.666C680.485+460.786+680.075+458.646+680.075+456.246C680.075+453.926+680.485+451.826+681.305+449.946C682.125+448.066+683.235+446.466+684.635+445.146C686.035+443.826+687.665+442.806+689.525+442.086C691.385+441.366+693.375+441.006+695.495+441.006C697.615+441.006+699.665+441.406+701.645+442.206C703.625+443.006+705.195+444.106+706.355+445.506L701.435+449.826Z" opacity="1" fill="#ffffff"/>
<path d="M706.895+447.606L706.895+441.846L711.935+441.846L711.935+433.506L719.015+433.506L719.015+441.846L726.215+441.846L726.215+447.606L719.015+447.606L719.015+460.986C719.015+462.266+719.245+463.326+719.705+464.166C720.165+465.006+721.195+465.426+722.795+465.426C723.275+465.426+723.795+465.376+724.355+465.276C724.915+465.176+725.415+465.026+725.855+464.826L726.095+470.466C725.455+470.706+724.695+470.896+723.815+471.036C722.935+471.176+722.095+471.246+721.295+471.246C719.375+471.246+717.815+470.976+716.615+470.436C715.415+469.896+714.465+469.156+713.765+468.216C713.065+467.276+712.585+466.196+712.325+464.976C712.065+463.756+711.935+462.446+711.935+461.046L711.935+447.606L706.895+447.606Z" opacity="1" fill="#ffffff"/>
<path d="M766.115+449.826C765.555+449.026+764.715+448.356+763.595+447.816C762.475+447.276+761.335+447.006+760.175+447.006C758.855+447.006+757.695+447.276+756.695+447.816C755.695+448.356+754.865+449.066+754.205+449.946C753.545+450.826+753.055+451.816+752.735+452.916C752.415+454.016+752.255+455.126+752.255+456.246C752.255+457.366+752.425+458.476+752.765+459.576C753.105+460.676+753.615+461.666+754.295+462.546C754.975+463.426+755.825+464.136+756.845+464.676C757.865+465.216+759.055+465.486+760.415+465.486C761.535+465.486+762.655+465.266+763.775+464.826C764.895+464.386+765.795+463.746+766.475+462.906L770.975+467.466C769.775+468.746+768.245+469.736+766.385+470.436C764.525+471.136+762.515+471.486+760.355+471.486C758.235+471.486+756.225+471.146+754.325+470.466C752.425+469.786+750.765+468.786+749.345+467.466C747.925+466.146+746.805+464.546+745.985+462.666C745.165+460.786+744.755+458.646+744.755+456.246C744.755+453.926+745.165+451.826+745.985+449.946C746.805+448.066+747.915+446.466+749.315+445.146C750.715+443.826+752.345+442.806+754.205+442.086C756.065+441.366+758.055+441.006+760.175+441.006C762.295+441.006+764.345+441.406+766.325+442.206C768.305+443.006+769.875+444.106+771.035+445.506L766.115+449.826Z" opacity="1" fill="#ffffff"/>
<path d="M774.035+456.126C774.035+453.846+774.445+451.776+775.265+449.916C776.085+448.056+777.195+446.466+778.595+445.146C779.995+443.826+781.655+442.806+783.575+442.086C785.495+441.366+787.535+441.006+789.695+441.006C791.855+441.006+793.895+441.366+795.815+442.086C797.735+442.806+799.395+443.826+800.795+445.146C802.195+446.466+803.305+448.056+804.125+449.916C804.945+451.776+805.355+453.846+805.355+456.126C805.355+458.406+804.945+460.486+804.125+462.366C803.305+464.246+802.195+465.856+800.795+467.196C799.395+468.536+797.735+469.586+795.815+470.346C793.895+471.106+791.855+471.486+789.695+471.486C787.535+471.486+785.495+471.106+783.575+470.346C781.655+469.586+779.995+468.536+778.595+467.196C777.195+465.856+776.085+464.246+775.265+462.366C774.445+460.486+774.035+458.406+774.035+456.126ZM781.355+456.126C781.355+457.246+781.525+458.366+781.865+459.486C782.205+460.606+782.715+461.606+783.395+462.486C784.075+463.366+784.935+464.086+785.975+464.646C787.015+465.206+788.255+465.486+789.695+465.486C791.135+465.486+792.375+465.206+793.415+464.646C794.455+464.086+795.315+463.366+795.995+462.486C796.675+461.606+797.185+460.606+797.525+459.486C797.865+458.366+798.035+457.246+798.035+456.126C798.035+455.006+797.865+453.896+797.525+452.796C797.185+451.696+796.675+450.706+795.995+449.826C795.315+448.946+794.455+448.236+793.415+447.696C792.375+447.156+791.135+446.886+789.695+446.886C788.255+446.886+787.015+447.156+785.975+447.696C784.935+448.236+784.075+448.946+783.395+449.826C782.715+450.706+782.205+451.696+781.865+452.796C781.525+453.896+781.355+455.006+781.355+456.126Z" opacity="1" fill="#ffffff"/>
<path d="M846.695+441.006C848.575+441.006+850.185+441.336+851.525+441.996C852.865+442.656+853.965+443.526+854.825+444.606C855.685+445.686+856.315+446.926+856.715+448.326C857.115+449.726+857.315+451.166+857.315+452.646L857.315+470.646L850.115+470.646L850.115+454.686C850.115+453.846+850.055+452.966+849.935+452.046C849.815+451.126+849.555+450.296+849.155+449.556C848.755+448.816+848.205+448.206+847.505+447.726C846.805+447.246+845.875+447.006+844.715+447.006C843.595+447.006+842.635+447.246+841.835+447.726C841.035+448.206+840.375+448.826+839.855+449.586C839.335+450.346+838.955+451.196+838.715+452.136C838.475+453.076+838.355+454.006+838.355+454.926L838.355+470.646L831.155+470.646L831.155+453.246C831.155+451.446+830.725+449.956+829.865+448.776C829.005+447.596+827.655+447.006+825.815+447.006C824.735+447.006+823.795+447.236+822.995+447.696C822.195+448.156+821.545+448.746+821.045+449.466C820.545+450.186+820.165+451.016+819.905+451.956C819.645+452.896+819.515+453.846+819.515+454.806L819.515+470.646L812.315+470.646L812.315+441.846L819.155+441.846L819.155+446.466L819.275+446.466C819.595+445.746+820.025+445.066+820.565+444.426C821.105+443.786+821.745+443.206+822.485+442.686C823.225+442.166+824.075+441.756+825.035+441.456C825.995+441.156+827.055+441.006+828.215+441.006C830.455+441.006+832.315+441.506+833.795+442.506C835.275+443.506+836.415+444.826+837.215+446.466C838.175+444.706+839.455+443.356+841.055+442.416C842.655+441.476+844.535+441.006+846.695+441.006Z" opacity="1" fill="#ffffff"/>
<path d="M872.615+441.846L872.615+445.866L872.795+445.866C873.155+445.306+873.625+444.736+874.205+444.156C874.785+443.576+875.495+443.056+876.335+442.596C877.175+442.136+878.125+441.756+879.185+441.456C880.245+441.156+881.435+441.006+882.755+441.006C884.795+441.006+886.675+441.396+888.395+442.176C890.115+442.956+891.595+444.026+892.835+445.386C894.075+446.746+895.035+448.346+895.715+450.186C896.395+452.026+896.735+454.006+896.735+456.126C896.735+458.246+896.405+460.236+895.745+462.096C895.085+463.956+894.145+465.576+892.925+466.956C891.705+468.336+890.225+469.436+888.485+470.256C886.745+471.076+884.775+471.486+882.575+471.486C880.535+471.486+878.665+471.066+876.965+470.226C875.265+469.386+873.955+468.246+873.035+466.806L872.915+466.806L872.915+485.046L865.715+485.046L865.715+441.846L872.615+441.846ZM889.415+456.126C889.415+455.006+889.245+453.896+888.905+452.796C888.565+451.696+888.055+450.706+887.375+449.826C886.695+448.946+885.835+448.236+884.795+447.696C883.755+447.156+882.535+446.886+881.135+446.886C879.815+446.886+878.635+447.166+877.595+447.726C876.555+448.286+875.665+449.006+874.925+449.886C874.185+450.766+873.625+451.766+873.245+452.886C872.865+454.006+872.675+455.126+872.675+456.246C872.675+457.366+872.865+458.476+873.245+459.576C873.625+460.676+874.185+461.666+874.925+462.546C875.665+463.426+876.555+464.136+877.595+464.676C878.635+465.216+879.815+465.486+881.135+465.486C882.535+465.486+883.755+465.206+884.795+464.646C885.835+464.086+886.695+463.366+887.375+462.486C888.055+461.606+888.565+460.606+888.905+459.486C889.245+458.366+889.415+457.246+889.415+456.126Z" opacity="1" fill="#ffffff"/>
<path d="M902.015+456.126C902.015+453.846+902.425+451.776+903.245+449.916C904.065+448.056+905.175+446.466+906.575+445.146C907.975+443.826+909.635+442.806+911.555+442.086C913.475+441.366+915.515+441.006+917.675+441.006C919.835+441.006+921.875+441.366+923.795+442.086C925.715+442.806+927.375+443.826+928.775+445.146C930.175+446.466+931.285+448.056+932.105+449.916C932.925+451.776+933.335+453.846+933.335+456.126C933.335+458.406+932.925+460.486+932.105+462.366C931.285+464.246+930.175+465.856+928.775+467.196C927.375+468.536+925.715+469.586+923.795+470.346C921.875+471.106+919.835+471.486+917.675+471.486C915.515+471.486+913.475+471.106+911.555+470.346C909.635+469.586+907.975+468.536+906.575+467.196C905.175+465.856+904.065+464.246+903.245+462.366C902.425+460.486+902.015+458.406+902.015+456.126ZM909.335+456.126C909.335+457.246+909.505+458.366+909.845+459.486C910.185+460.606+910.695+461.606+911.375+462.486C912.055+463.366+912.915+464.086+913.955+464.646C914.995+465.206+916.235+465.486+917.675+465.486C919.115+465.486+920.355+465.206+921.395+464.646C922.435+464.086+923.295+463.366+923.975+462.486C924.655+461.606+925.165+460.606+925.505+459.486C925.845+458.366+926.015+457.246+926.015+456.126C926.015+455.006+925.845+453.896+925.505+452.796C925.165+451.696+924.655+450.706+923.975+449.826C923.295+448.946+922.435+448.236+921.395+447.696C920.355+447.156+919.115+446.886+917.675+446.886C916.235+446.886+914.995+447.156+913.955+447.696C912.915+448.236+912.055+448.946+911.375+449.826C910.695+450.706+910.185+451.696+909.845+452.796C909.505+453.896+909.335+455.006+909.335+456.126Z" opacity="1" fill="#ffffff"/>
<path d="M940.295+441.846L947.135+441.846L947.135+446.466L947.255+446.466C947.895+445.026+949.005+443.756+950.585+442.656C952.165+441.556+954.035+441.006+956.195+441.006C958.075+441.006+959.685+441.336+961.025+441.996C962.365+442.656+963.465+443.526+964.325+444.606C965.185+445.686+965.815+446.926+966.215+448.326C966.615+449.726+966.815+451.166+966.815+452.646L966.815+470.646L959.615+470.646L959.615+454.686C959.615+453.846+959.555+452.966+959.435+452.046C959.315+451.126+959.055+450.296+958.655+449.556C958.255+448.816+957.705+448.206+957.005+447.726C956.305+447.246+955.375+447.006+954.215+447.006C953.055+447.006+952.055+447.236+951.215+447.696C950.375+448.156+949.685+448.746+949.145+449.466C948.605+450.186+948.195+451.016+947.915+451.956C947.635+452.896+947.495+453.846+947.495+454.806L947.495+470.646L940.295+470.646L940.295+441.846Z" opacity="1" fill="#ffffff"/>
<path d="M995.495+453.366C995.495+452.446+995.365+451.566+995.105+450.726C994.845+449.886+994.435+449.146+993.875+448.506C993.315+447.866+992.605+447.356+991.745+446.976C990.885+446.596+989.875+446.406+988.715+446.406C986.555+446.406+984.725+447.056+983.225+448.356C981.725+449.656+980.895+451.326+980.735+453.366L995.495+453.366ZM1002.69+456.606C1002.69+456.926+1002.69+457.246+1002.69+457.566C1002.69+457.886+1002.67+458.206+1002.63+458.526L980.735+458.526C980.815+459.566+981.085+460.516+981.545+461.376C982.005+462.236+982.615+462.976+983.375+463.596C984.135+464.216+984.995+464.706+985.955+465.066C986.915+465.426+987.915+465.606+988.955+465.606C990.755+465.606+992.275+465.276+993.515+464.616C994.755+463.956+995.775+463.046+996.575+461.886L1001.37+465.726C998.535+469.566+994.415+471.486+989.015+471.486C986.775+471.486+984.715+471.136+982.835+470.436C980.955+469.736+979.325+468.746+977.945+467.466C976.565+466.186+975.485+464.616+974.705+462.756C973.925+460.896+973.535+458.786+973.535+456.426C973.535+454.106+973.925+451.996+974.705+450.096C975.485+448.196+976.555+446.576+977.915+445.236C979.275+443.896+980.885+442.856+982.745+442.116C984.605+441.376+986.615+441.006+988.775+441.006C990.775+441.006+992.625+441.336+994.325+441.996C996.025+442.656+997.495+443.636+998.735+444.936C999.975+446.236+1000.94+447.856+1001.64+449.796C1002.34+451.736+1002.69+454.006+1002.69+456.606Z" opacity="1" fill="#ffffff"/>
<path d="M1009.65+441.846L1016.49+441.846L1016.49+446.466L1016.61+446.466C1017.25+445.026+1018.36+443.756+1019.94+442.656C1021.52+441.556+1023.39+441.006+1025.55+441.006C1027.43+441.006+1029.04+441.336+1030.38+441.996C1031.72+442.656+1032.82+443.526+1033.68+444.606C1034.54+445.686+1035.17+446.926+1035.57+448.326C1035.97+449.726+1036.17+451.166+1036.17+452.646L1036.17+470.646L1028.97+470.646L1028.97+454.686C1028.97+453.846+1028.91+452.966+1028.79+452.046C1028.67+451.126+1028.41+450.296+1028.01+449.556C1027.61+448.816+1027.06+448.206+1026.36+447.726C1025.66+447.246+1024.73+447.006+1023.57+447.006C1022.41+447.006+1021.41+447.236+1020.57+447.696C1019.73+448.156+1019.04+448.746+1018.5+449.466C1017.96+450.186+1017.55+451.016+1017.27+451.956C1016.99+452.896+1016.85+453.846+1016.85+454.806L1016.85+470.646L1009.65+470.646L1009.65+441.846Z" opacity="1" fill="#ffffff"/>
<path d="M1040.43+447.606L1040.43+441.846L1045.47+441.846L1045.47+433.506L1052.55+433.506L1052.55+441.846L1059.75+441.846L1059.75+447.606L1052.55+447.606L1052.55+460.986C1052.55+462.266+1052.78+463.326+1053.24+464.166C1053.7+465.006+1054.73+465.426+1056.33+465.426C1056.81+465.426+1057.33+465.376+1057.89+465.276C1058.45+465.176+1058.95+465.026+1059.39+464.826L1059.63+470.466C1058.99+470.706+1058.23+470.896+1057.35+471.036C1056.47+471.176+1055.63+471.246+1054.83+471.246C1052.91+471.246+1051.35+470.976+1050.15+470.436C1048.95+469.896+1048+469.156+1047.3+468.216C1046.6+467.276+1046.12+466.196+1045.86+464.976C1045.6+463.756+1045.47+462.446+1045.47+461.046L1045.47+447.606L1040.43+447.606Z" opacity="1" fill="#ffffff"/>
<path d="M1075.83+447.606L1075.83+441.846L1080.87+441.846L1080.87+433.506L1087.95+433.506L1087.95+441.846L1095.15+441.846L1095.15+447.606L1087.95+447.606L1087.95+460.986C1087.95+462.266+1088.18+463.326+1088.64+464.166C1089.1+465.006+1090.13+465.426+1091.73+465.426C1092.21+465.426+1092.73+465.376+1093.29+465.276C1093.85+465.176+1094.35+465.026+1094.79+464.826L1095.03+470.466C1094.39+470.706+1093.63+470.896+1092.75+471.036C1091.87+471.176+1091.03+471.246+1090.23+471.246C1088.31+471.246+1086.75+470.976+1085.55+470.436C1084.35+469.896+1083.4+469.156+1082.7+468.216C1082+467.276+1081.52+466.196+1081.26+464.976C1081+463.756+1080.87+462.446+1080.87+461.046L1080.87+447.606L1075.83+447.606Z" opacity="1" fill="#ffffff"/>
<path d="M1118.25+466.986L1118.07+466.986C1117.35+468.266+1116.19+469.316+1114.59+470.136C1112.99+470.956+1111.17+471.366+1109.13+471.366C1107.97+471.366+1106.76+471.216+1105.5+470.916C1104.24+470.616+1103.08+470.116+1102.02+469.416C1100.96+468.716+1100.08+467.796+1099.38+466.656C1098.68+465.516+1098.33+464.106+1098.33+462.426C1098.33+460.266+1098.94+458.546+1100.16+457.266C1101.38+455.986+1102.95+455.006+1104.87+454.326C1106.79+453.646+1108.92+453.196+1111.26+452.976C1113.6+452.756+1115.89+452.646+1118.13+452.646L1118.13+451.926C1118.13+450.126+1117.48+448.796+1116.18+447.936C1114.88+447.076+1113.33+446.646+1111.53+446.646C1110.01+446.646+1108.55+446.966+1107.15+447.606C1105.75+448.246+1104.59+449.026+1103.67+449.946L1099.95+445.566C1101.59+444.046+1103.48+442.906+1105.62+442.146C1107.76+441.386+1109.93+441.006+1112.13+441.006C1114.69+441.006+1116.8+441.366+1118.46+442.086C1120.12+442.806+1121.43+443.746+1122.39+444.906C1123.35+446.066+1124.02+447.366+1124.4+448.806C1124.78+450.246+1124.97+451.686+1124.97+453.126L1124.97+470.646L1118.25+470.646L1118.25+466.986ZM1118.13+457.506L1116.51+457.506C1115.35+457.506+1114.13+457.556+1112.85+457.656C1111.57+457.756+1110.39+457.976+1109.31+458.316C1108.23+458.656+1107.33+459.136+1106.61+459.756C1105.89+460.376+1105.53+461.226+1105.53+462.306C1105.53+462.986+1105.68+463.556+1105.98+464.016C1106.28+464.476+1106.67+464.846+1107.15+465.126C1107.63+465.406+1108.17+465.606+1108.77+465.726C1109.37+465.846+1109.97+465.906+1110.57+465.906C1113.05+465.906+1114.93+465.246+1116.21+463.926C1117.49+462.606+1118.13+460.806+1118.13+458.526L1118.13+457.506Z" opacity="1" fill="#ffffff"/>
<path d="M1153.05+449.826C1152.49+449.026+1151.65+448.356+1150.53+447.816C1149.41+447.276+1148.27+447.006+1147.11+447.006C1145.79+447.006+1144.63+447.276+1143.63+447.816C1142.63+448.356+1141.8+449.066+1141.14+449.946C1140.48+450.826+1139.99+451.816+1139.67+452.916C1139.35+454.016+1139.19+455.126+1139.19+456.246C1139.19+457.366+1139.36+458.476+1139.7+459.576C1140.04+460.676+1140.55+461.666+1141.23+462.546C1141.91+463.426+1142.76+464.136+1143.78+464.676C1144.8+465.216+1145.99+465.486+1147.35+465.486C1148.47+465.486+1149.59+465.266+1150.71+464.826C1151.83+464.386+1152.73+463.746+1153.41+462.906L1157.91+467.466C1156.71+468.746+1155.18+469.736+1153.32+470.436C1151.46+471.136+1149.45+471.486+1147.29+471.486C1145.17+471.486+1143.16+471.146+1141.26+470.466C1139.36+469.786+1137.7+468.786+1136.28+467.466C1134.86+466.146+1133.74+464.546+1132.92+462.666C1132.1+460.786+1131.69+458.646+1131.69+456.246C1131.69+453.926+1132.1+451.826+1132.92+449.946C1133.74+448.066+1134.85+446.466+1136.25+445.146C1137.65+443.826+1139.28+442.806+1141.14+442.086C1143+441.366+1144.99+441.006+1147.11+441.006C1149.23+441.006+1151.28+441.406+1153.26+442.206C1155.24+443.006+1156.81+444.106+1157.97+445.506L1153.05+449.826Z" opacity="1" fill="#ffffff"/>
<path d="M1162.77+425.286L1169.97+425.286L1169.97+453.966L1170.15+453.966L1181.07+441.846L1190.31+441.846L1177.83+454.866L1191.09+470.646L1181.55+470.646L1170.15+455.886L1169.97+455.886L1169.97+470.646L1162.77+470.646L1162.77+425.286Z" opacity="1" fill="#ffffff"/>
<path d="M1195.35+425.286L1202.55+425.286L1202.55+470.646L1195.35+470.646L1195.35+425.286Z" opacity="1" fill="#ffffff"/>
<path d="M1231.59+453.366C1231.59+452.446+1231.46+451.566+1231.2+450.726C1230.94+449.886+1230.53+449.146+1229.97+448.506C1229.41+447.866+1228.7+447.356+1227.84+446.976C1226.98+446.596+1225.97+446.406+1224.81+446.406C1222.65+446.406+1220.82+447.056+1219.32+448.356C1217.82+449.656+1216.99+451.326+1216.83+453.366L1231.59+453.366ZM1238.79+456.606C1238.79+456.926+1238.79+457.246+1238.79+457.566C1238.79+457.886+1238.77+458.206+1238.73+458.526L1216.83+458.526C1216.91+459.566+1217.18+460.516+1217.64+461.376C1218.1+462.236+1218.71+462.976+1219.47+463.596C1220.23+464.216+1221.09+464.706+1222.05+465.066C1223.01+465.426+1224.01+465.606+1225.05+465.606C1226.85+465.606+1228.37+465.276+1229.61+464.616C1230.85+463.956+1231.87+463.046+1232.67+461.886L1237.47+465.726C1234.63+469.566+1230.51+471.486+1225.11+471.486C1222.87+471.486+1220.81+471.136+1218.93+470.436C1217.05+469.736+1215.42+468.746+1214.04+467.466C1212.66+466.186+1211.58+464.616+1210.8+462.756C1210.02+460.896+1209.63+458.786+1209.63+456.426C1209.63+454.106+1210.02+451.996+1210.8+450.096C1211.58+448.196+1212.65+446.576+1214.01+445.236C1215.37+443.896+1216.98+442.856+1218.84+442.116C1220.7+441.376+1222.71+441.006+1224.87+441.006C1226.87+441.006+1228.72+441.336+1230.42+441.996C1232.12+442.656+1233.59+443.636+1234.83+444.936C1236.07+446.236+1237.04+447.856+1237.74+449.796C1238.44+451.736+1238.79+454.006+1238.79+456.606Z" opacity="1" fill="#ffffff"/>
<path d="M1253.07+425.286L1253.07+445.506L1253.25+445.506C1253.61+445.026+1254.07+444.526+1254.63+444.006C1255.19+443.486+1255.86+443.006+1256.64+442.566C1257.42+442.126+1258.33+441.756+1259.37+441.456C1260.41+441.156+1261.59+441.006+1262.91+441.006C1264.95+441.006+1266.83+441.396+1268.55+442.176C1270.27+442.956+1271.75+444.026+1272.99+445.386C1274.23+446.746+1275.19+448.346+1275.87+450.186C1276.55+452.026+1276.89+454.006+1276.89+456.126C1276.89+458.246+1276.56+460.236+1275.9+462.096C1275.24+463.956+1274.3+465.576+1273.08+466.956C1271.86+468.336+1270.38+469.436+1268.64+470.256C1266.9+471.076+1264.93+471.486+1262.73+471.486C1260.69+471.486+1258.78+471.046+1257+470.166C1255.22+469.286+1253.83+468.006+1252.83+466.326L1252.71+466.326L1252.71+470.646L1245.87+470.646L1245.87+425.286L1253.07+425.286ZM1269.57+456.126C1269.57+455.006+1269.4+453.896+1269.06+452.796C1268.72+451.696+1268.21+450.706+1267.53+449.826C1266.85+448.946+1265.99+448.236+1264.95+447.696C1263.91+447.156+1262.69+446.886+1261.29+446.886C1259.97+446.886+1258.79+447.166+1257.75+447.726C1256.71+448.286+1255.82+449.006+1255.08+449.886C1254.34+450.766+1253.78+451.766+1253.4+452.886C1253.02+454.006+1252.83+455.126+1252.83+456.246C1252.83+457.366+1253.02+458.476+1253.4+459.576C1253.78+460.676+1254.34+461.666+1255.08+462.546C1255.82+463.426+1256.71+464.136+1257.75+464.676C1258.79+465.216+1259.97+465.486+1261.29+465.486C1262.69+465.486+1263.91+465.206+1264.95+464.646C1265.99+464.086+1266.85+463.366+1267.53+462.486C1268.21+461.606+1268.72+460.606+1269.06+459.486C1269.4+458.366+1269.57+457.246+1269.57+456.126Z" opacity="1" fill="#ffffff"/>
<path d="M1282.17+456.126C1282.17+453.846+1282.58+451.776+1283.4+449.916C1284.22+448.056+1285.33+446.466+1286.73+445.146C1288.13+443.826+1289.79+442.806+1291.71+442.086C1293.63+441.366+1295.67+441.006+1297.83+441.006C1299.99+441.006+1302.03+441.366+1303.95+442.086C1305.87+442.806+1307.53+443.826+1308.93+445.146C1310.33+446.466+1311.44+448.056+1312.26+449.916C1313.08+451.776+1313.49+453.846+1313.49+456.126C1313.49+458.406+1313.08+460.486+1312.26+462.366C1311.44+464.246+1310.33+465.856+1308.93+467.196C1307.53+468.536+1305.87+469.586+1303.95+470.346C1302.03+471.106+1299.99+471.486+1297.83+471.486C1295.67+471.486+1293.63+471.106+1291.71+470.346C1289.79+469.586+1288.13+468.536+1286.73+467.196C1285.33+465.856+1284.22+464.246+1283.4+462.366C1282.58+460.486+1282.17+458.406+1282.17+456.126ZM1289.49+456.126C1289.49+457.246+1289.66+458.366+1290+459.486C1290.34+460.606+1290.85+461.606+1291.53+462.486C1292.21+463.366+1293.07+464.086+1294.11+464.646C1295.15+465.206+1296.39+465.486+1297.83+465.486C1299.27+465.486+1300.51+465.206+1301.55+464.646C1302.59+464.086+1303.45+463.366+1304.13+462.486C1304.81+461.606+1305.32+460.606+1305.66+459.486C1306+458.366+1306.17+457.246+1306.17+456.126C1306.17+455.006+1306+453.896+1305.66+452.796C1305.32+451.696+1304.81+450.706+1304.13+449.826C1303.45+448.946+1302.59+448.236+1301.55+447.696C1300.51+447.156+1299.27+446.886+1297.83+446.886C1296.39+446.886+1295.15+447.156+1294.11+447.696C1293.07+448.236+1292.21+448.946+1291.53+449.826C1290.85+450.706+1290.34+451.696+1290+452.796C1289.66+453.896+1289.49+455.006+1289.49+456.126Z" opacity="1" fill="#ffffff"/>
<path d="M1327.17+455.346L1316.79+441.846L1325.43+441.846L1331.67+450.786L1338.09+441.846L1346.37+441.846L1336.05+455.346L1347.81+470.646L1339.05+470.646L1331.55+460.146L1323.99+470.646L1315.47+470.646L1327.17+455.346Z" opacity="1" fill="#ffffff"/>
</g>
</g>
<g id="Layer 3" vectornator:layerName="Layer 3">
<path d="M-0.000734246+802.144C-0.000734246+802.144+20.6946+823.246+171.721+800.316C295.909+826.054+322.872+811.335+451.275+800.316C553.449+815.35+591.799+826.943+708.902+811.967C804.203+828.41+934.232+824.425+1023.38+808.897C1065.87+823.583+1138.59+826.349+1266.29+812.034C1403.05+837.772+1468.72+823.539+1603.92+797.8C1734.39+823.539+1920+802.144+1920+802.144L1920+1281.17L-0.000734246+1281.17L-0.000734246+802.144Z" opacity="1" fill="url(#LinearGradient_6)"/>
</g>
</svg>
